<svg xmlns="http://www.w3.org/2000/svg" width="70.918" height="42.409" viewBox="0 0 70.918 42.409"><g transform="translate(-1.668 -1.1)"><path d="M31.153,16.5a7.137,7.137,0,0,0,.259,2.1,12.625,12.625,0,0,0,.755,1.7,1.026,1.026,0,0,1,.165.542.934.934,0,0,1-.448.708L30.4,22.54a1.131,1.131,0,0,1-.613.212,1.085,1.085,0,0,1-.708-.33,7.3,7.3,0,0,1-.849-1.109c-.236-.4-.472-.849-.731-1.392a8.713,8.713,0,0,1-6.934,3.255,6.463,6.463,0,0,1-4.717-1.7A6.059,6.059,0,0,1,14.1,16.95a6.072,6.072,0,0,1,2.146-4.859,8.581,8.581,0,0,1,5.779-1.84,18.675,18.675,0,0,1,2.5.189c.873.118,1.769.307,2.712.519V9.237a5.226,5.226,0,0,0-1.109-3.774,5.429,5.429,0,0,0-3.845-1.085,10.732,10.732,0,0,0-2.547.307,18.794,18.794,0,0,0-2.547.8,6.768,6.768,0,0,1-.826.307,1.447,1.447,0,0,1-.377.071c-.33,0-.5-.236-.5-.731V3.977a1.492,1.492,0,0,1,.165-.826,1.766,1.766,0,0,1,.66-.5,13.579,13.579,0,0,1,2.972-1.061,14.3,14.3,0,0,1,3.679-.448c2.807,0,4.859.637,6.18,1.911,1.3,1.274,1.958,3.208,1.958,5.8V16.5Zm-9.576,3.585a7.644,7.644,0,0,0,2.429-.425,5.256,5.256,0,0,0,2.241-1.51,3.744,3.744,0,0,0,.8-1.51,8.468,8.468,0,0,0,.236-2.052V13.6a19.7,19.7,0,0,0-2.17-.4,17.773,17.773,0,0,0-2.217-.142A5.438,5.438,0,0,0,19.383,14a3.287,3.287,0,0,0-1.156,2.712,3.043,3.043,0,0,0,3.349,3.373Zm18.94,2.547a1.317,1.317,0,0,1-.9-.236,1.922,1.922,0,0,1-.5-.92L33.583,3.246A4.131,4.131,0,0,1,33.37,2.3a.517.517,0,0,1,.566-.59h2.311a1.307,1.307,0,0,1,.92.236,1.93,1.93,0,0,1,.472.92L41.6,18.483,45.281,2.869a1.654,1.654,0,0,1,.448-.92,1.622,1.622,0,0,1,.943-.236H48.56a1.419,1.419,0,0,1,.943.236,1.589,1.589,0,0,1,.448.92l3.727,15.8,4.08-15.8a2.023,2.023,0,0,1,.472-.92,1.539,1.539,0,0,1,.92-.236h2.194a.524.524,0,0,1,.59.59,2.352,2.352,0,0,1-.047.377,3.356,3.356,0,0,1-.165.59L56.037,21.5a1.809,1.809,0,0,1-.5.92,1.509,1.509,0,0,1-.9.236H52.617a1.419,1.419,0,0,1-.943-.236,1.672,1.672,0,0,1-.448-.943L47.569,6.265l-3.632,15.19a1.841,1.841,0,0,1-.448.943,1.462,1.462,0,0,1-.943.236Zm30.309.637a15.608,15.608,0,0,1-3.632-.425,10.73,10.73,0,0,1-2.712-.943,1.7,1.7,0,0,1-.731-.66,1.665,1.665,0,0,1-.142-.66v-1.2c0-.5.189-.731.542-.731a1.336,1.336,0,0,1,.425.071c.142.047.354.142.59.236a12.829,12.829,0,0,0,2.595.826,14.165,14.165,0,0,0,2.807.283,6.364,6.364,0,0,0,3.444-.778,2.54,2.54,0,0,0,1.226-2.241,2.3,2.3,0,0,0-.637-1.651,5.918,5.918,0,0,0-2.382-1.227L68.8,13.105A7.194,7.194,0,0,1,65.023,10.7a5.619,5.619,0,0,1-1.179-3.42,5.249,5.249,0,0,1,.637-2.618,6.065,6.065,0,0,1,1.7-1.934A7.486,7.486,0,0,1,68.632,1.5,10.28,10.28,0,0,1,71.6,1.1a11.841,11.841,0,0,1,1.58.094c.542.071,1.038.165,1.533.259.472.118.92.236,1.344.377a5.148,5.148,0,0,1,.991.425,2.04,2.04,0,0,1,.708.59,1.271,1.271,0,0,1,.212.778V4.732c0,.5-.189.755-.542.755a2.454,2.454,0,0,1-.9-.283,10.79,10.79,0,0,0-4.529-.92,6.088,6.088,0,0,0-3.137.66,2.278,2.278,0,0,0-1.109,2.1,2.227,2.227,0,0,0,.708,1.675,7.045,7.045,0,0,0,2.595,1.3l3.349,1.061a7.174,7.174,0,0,1,3.656,2.264,5.337,5.337,0,0,1,1.085,3.3,6.064,6.064,0,0,1-.613,2.736,6.343,6.343,0,0,1-1.722,2.076A7.6,7.6,0,0,1,74.2,22.776,11.216,11.216,0,0,1,70.826,23.271Z" transform="translate(-9.5)" fill="#3c5ab9"/><path d="M65.784,124.935c-7.76,5.732-19.034,8.774-28.728,8.774A51.973,51.973,0,0,1,1.982,120.336c-.731-.66-.071-1.557.8-1.038a70.733,70.733,0,0,0,35.1,9.317,70.037,70.037,0,0,0,26.771-5.472C65.949,122.553,67.057,123.992,65.784,124.935Z" transform="translate(0 -90.201)" fill="#3c5ab9" fill-rule="evenodd"/><path d="M255.707,116.707c-.991-1.274-6.557-.613-9.081-.307-.755.094-.873-.566-.189-1.061,4.434-3.113,11.723-2.217,12.572-1.179.849,1.061-.236,8.35-4.387,11.84-.637.542-1.25.259-.967-.448C254.6,123.217,256.7,117.958,255.707,116.707Z" transform="translate(-186.692 -85.653)" fill="#3c5ab9" fill-rule="evenodd"/></g></svg>