<svg xmlns="http://www.w3.org/2000/svg" width="127.888" height="50.882" viewBox="0 0 127.888 50.882"><g transform="translate(-10 -2.88)"><path d="M75.938,49.63V30h7.746c4.449,0,7.034,2.748,7.034,6.65,0,3.926-2.625,6.617-7.14,6.617h-3.5V49.63H75.938Zm4.139-9.692H82.9c2.372,0,3.533-1.341,3.533-3.288s-1.161-3.255-3.558-3.255h-2.8v6.543Zm15.933,9.97c-2.806,0-4.891-1.472-4.891-4.392,0-3.288,2.617-4.261,5.537-4.531,2.552-.245,3.558-.376,3.558-1.325V39.6c0-1.2-.793-1.906-2.184-1.906a2.469,2.469,0,0,0-2.618,1.693l-3.771-.3c.564-2.683,2.879-4.368,6.413-4.368,3.272,0,6.249,1.472,6.249,4.981V49.63h-3.877V47.585h-.115a4.516,4.516,0,0,1-4.3,2.323Zm1.17-2.822a2.82,2.82,0,0,0,3.067-2.715V42.808a9.753,9.753,0,0,1-2.838.654c-1.44.2-2.389.769-2.389,1.922C95.02,46.505,95.92,47.086,97.179,47.086Zm15.8,8.367c-3.975,0-6.241-1.775-6.731-4.1l3.779-.507c.327.892,1.243,1.677,3.043,1.677,1.775,0,3.067-.785,3.067-2.805v-2.7h-.164a4.275,4.275,0,0,1-4.2,2.4c-3.321,0-5.971-2.282-5.971-7.181,0-5.006,2.732-7.525,5.963-7.525a4.38,4.38,0,0,1,4.2,2.666h.155v-2.47h4.057v14.87c0,3.762-2.994,5.676-7.2,5.676Zm.082-9.1c1.963,0,3.1-1.529,3.1-4.13,0-2.576-1.112-4.253-3.1-4.253-2.02,0-3.092,1.75-3.092,4.253C109.971,44.755,111.059,46.35,113.063,46.35Zm15.949,3.566c-4.531,0-7.3-2.912-7.3-7.582,0-4.539,2.814-7.615,7.14-7.615,3.893,0,6.919,2.47,6.919,7.476v1.121H125.749c0,2.208,1.292,3.558,3.337,3.558a2.764,2.764,0,0,0,2.822-1.718l3.779.254c-.573,2.732-3.026,4.507-6.674,4.507ZM125.74,40.78h6.192a2.9,2.9,0,0,0-3.01-3.018,3.108,3.108,0,0,0-3.173,3.026ZM149.558,39.1l-3.738.229a2.3,2.3,0,0,0-2.462-1.718c-1.268,0-2.266.573-2.257,1.456,0,.7.5,1.178,1.873,1.472l2.666.54c2.854.581,4.245,1.857,4.253,3.983-.008,2.9-2.74,4.85-6.56,4.85-3.9,0-6.3-1.734-6.674-4.548l4.008-.213c.254,1.194,1.227,1.816,2.683,1.816,1.423,0,2.372-.622,2.388-1.489-.016-.736-.6-1.211-1.881-1.472l-2.552-.507c-2.879-.573-4.269-2-4.253-4.2-.016-2.838,2.47-4.58,6.232-4.58,3.721,0,5.905,1.677,6.273,4.384Z" transform="translate(-12.005 -4.938)" fill="#3c5ab9"/><path d="M82.592,17.174H80.94a1.566,1.566,0,0,0-1.66-1.374c-1.2,0-1.987.924-1.987,2.536,0,1.644.8,2.519,1.971,2.519a1.576,1.576,0,0,0,1.677-1.309l1.652.016a3.189,3.189,0,0,1-3.353,2.74c-2.069,0-3.6-1.448-3.6-3.975s1.554-3.967,3.6-3.967a3.123,3.123,0,0,1,3.353,2.814Zm2.315-2.707V22.2H83.3V14.466Zm3.46,7.844A2.745,2.745,0,0,1,85.5,19.316a2.862,2.862,0,1,1,5.717,0,2.745,2.745,0,0,1-2.863,2.994Zm0-1.243c.8,0,1.219-.744,1.219-1.759s-.417-1.758-1.219-1.758-1.227.744-1.227,1.758S87.556,21.067,88.366,21.067Zm7.173-1.341V16.4h1.612v5.8H95.605V21.14h-.058a1.785,1.785,0,0,1-1.759,1.129,1.943,1.943,0,0,1-1.963-2.184V16.4h1.6v3.4a.993.993,0,0,0,1.006,1.112,1.092,1.092,0,0,0,1.1-1.186Zm4.581,2.568c-1.309,0-2.347-1.047-2.347-2.994,0-1.988,1.08-2.977,2.347-2.977a1.7,1.7,0,0,1,1.652,1.047h.049v-2.9h1.6V22.2h-1.587v-.932h-.065a1.718,1.718,0,0,1-1.644,1.031Zm.515-1.284c.777,0,1.227-.679,1.227-1.718s-.442-1.693-1.227-1.693-1.219.7-1.219,1.693c0,1.014.433,1.718,1.227,1.718Zm6.789-4.613v1.211h-1.161V22.2h-1.6V17.607h-.818V16.388h.818v-.417a1.743,1.743,0,0,1,1.9-1.881,4.072,4.072,0,0,1,1.145.164l-.286,1.2a1.838,1.838,0,0,0-.515-.082c-.474,0-.638.229-.638.622v.393h1.153Zm2.143-1.93V22.2h-1.611V14.466Zm2.486,7.836a1.693,1.693,0,0,1-1.922-1.726c0-1.292,1.031-1.677,2.176-1.783,1.014-.1,1.407-.147,1.407-.523v-.025c0-.474-.311-.752-.859-.752a.974.974,0,0,0-1.031.671l-1.489-.123a2.3,2.3,0,0,1,2.527-1.718c1.292,0,2.454.573,2.454,1.963V22.2H113.8v-.8h-.041a1.788,1.788,0,0,1-1.7.908Zm.466-1.1a1.11,1.11,0,0,0,1.2-1.071V19.5a3.708,3.708,0,0,1-1.112.262c-.573.082-.941.3-.941.752S112.02,21.2,112.519,21.2Zm3.607,1V16.388h1.554v1.022h.065a1.408,1.408,0,0,1,1.39-1.1,2.466,2.466,0,0,1,.507.057V17.8a2.7,2.7,0,0,0-.679-.082,1.171,1.171,0,0,0-1.227,1.2V22.2Zm6.273.115a2.719,2.719,0,0,1-2.879-2.985,2.745,2.745,0,0,1,2.814-3,2.634,2.634,0,0,1,2.732,2.944v.442h-3.95a1.258,1.258,0,0,0,1.309,1.4,1.081,1.081,0,0,0,1.112-.671l1.489.1a2.413,2.413,0,0,1-2.617,1.775Zm-1.284-3.6h2.429a1.145,1.145,0,0,0-1.186-1.194,1.226,1.226,0,0,0-1.243,1.194Z" transform="translate(-11.953 -2.041)" fill="#3c5ab9"/><path d="M39.4,10H50.9l1.636,1.636V47.624L50.9,49.259H35.224l.793-1.227H50.388l.916-.916V12.143l-.916-.916H40.475l-1.17,6.044H38.054l1.121-6.1L39.4,10ZM11.636,49.259,10,47.624V11.636L11.636,10H27.912l-.826,1.227H12.143l-.916.916V47.117l.916.916H23.986l-.2,1.227Zm2.454-4.09h6.952L20.8,46.4H13.272l-.409-.409V38.627L14.09,41.08Zm27.809,0L43.125,46.4H36.991l.818-1.227Z" transform="translate(0 -1.297)" fill="#3c5ab9"/><path d="M29.27,33.241H18.09l-1.358-2.552L35.544,2.88,38.5,4.107,34.791,23.426H45.9l1.374,2.527L29.278,53.762l-2.994-1.145ZM15.227,14.429a1.227,1.227,0,1,1,.868-.359,1.227,1.227,0,0,1-.868.359Zm3.272,0a1.227,1.227,0,1,1,.868-.359,1.227,1.227,0,0,1-.868.359Zm3.272,0a1.227,1.227,0,1,1,.868-.359,1.227,1.227,0,0,1-.868.359Z" transform="translate(-0.728 0)" fill="#3c5ab9"/></g></svg>