<svg xmlns="http://www.w3.org/2000/svg" width="192.5" height="40.132" viewBox="0 0 192.5 40.132"><g transform="translate(-20.365 -16.616)"><path d="M161.08,45.7c1.213-.933,1.4-.4,2.456.653.529.529,1.9,1.43,1.026,2.208a9.447,9.447,0,0,1-13.309-1,9.325,9.325,0,0,1-2.27-6.468,9.019,9.019,0,0,1,3.047-6.53,9.571,9.571,0,0,1,6.343-2.146,8.692,8.692,0,0,1,3.327.653,8.464,8.464,0,0,1,2.021,1.088c1.244.933.684,1.524-.311,2.488l-.653.653c-.5.5-.84.84-1.493.4a5.376,5.376,0,0,0-4.384-.933c-4.882,1.275-4.6,9.95,1.368,9.95A5.057,5.057,0,0,0,161.08,45.7Zm135.6,4.758a1.493,1.493,0,0,1-1.493-1.493V29.746a1.493,1.493,0,0,1,1.493-1.493h1.586a1.493,1.493,0,0,1,1.493,1.493V48.994a1.493,1.493,0,0,1-1.493,1.493Zm-8.365-2.177a7.826,7.826,0,0,1-5.846,2.488c-4.975,0-7.338-4.1-7.338-8.707v-7.8a1.493,1.493,0,0,1,1.493-1.493h1.586a1.493,1.493,0,0,1,1.493,1.493v7.774a4.063,4.063,0,0,0,3.514,4.54,3.571,3.571,0,0,0,.591.031A4.506,4.506,0,0,0,288.2,42V34.255a1.493,1.493,0,0,1,1.493-1.493h1.586a1.493,1.493,0,0,1,1.493,1.493v14.77a1.46,1.46,0,0,1-1.461,1.461h-1.337a1.5,1.5,0,0,1-1.461-1.461v-.746ZM269.228,32.825h3.109a1.487,1.487,0,0,1,1.461,1.493v1.026a1.487,1.487,0,0,1-1.461,1.493h-3.109V48.994a1.493,1.493,0,0,1-1.493,1.493h-1.586a1.493,1.493,0,0,1-1.493-1.493V32.2a6.352,6.352,0,0,1,5.753-6.9H272.9a1.487,1.487,0,0,1,1.461,1.493v.933a1.487,1.487,0,0,1-1.461,1.493h-1.182c-1.772,0-2.519,1.368-2.519,3.016Zm-11.07,0h3.389a1.46,1.46,0,0,1,1.461,1.461v1a1.46,1.46,0,0,1-1.461,1.461h-3.389v7.432c0,1.43.684,2.27,2.146,2.27h.684a1.46,1.46,0,0,1,1.461,1.461v1a1.46,1.46,0,0,1-1.461,1.461h-2.052c-3.669-.218-5.317-2.612-5.317-6.188v-14.4a1.46,1.46,0,0,1,1.461-1.461h1.555a1.46,1.46,0,0,1,1.461,1.461Zm-49.068,0h3.389a1.46,1.46,0,0,1,1.461,1.461v1a1.46,1.46,0,0,1-1.461,1.461h-3.3v7.432c0,1.43.684,2.27,2.146,2.27h.684a1.46,1.46,0,0,1,1.461,1.461v1a1.46,1.46,0,0,1-1.461,1.461h-1.026c-4.011,0-6.312-1.71-6.312-6.219V29.777a1.46,1.46,0,0,1,1.461-1.461h1.555a1.46,1.46,0,0,1,1.461,1.461v3.047Zm-19.9,2.146a7.94,7.94,0,0,1,5.659-2.488c4.944,0,7.556,4.073,7.556,8.707v7.8a1.493,1.493,0,0,1-1.493,1.493h-1.586a1.493,1.493,0,0,1-1.493-1.493V41.22a4.063,4.063,0,0,0-3.514-4.54,3.763,3.763,0,0,0-.591-.031,4.46,4.46,0,0,0-4.353,4.6v7.712a1.46,1.46,0,0,1-1.461,1.461H186.36a1.46,1.46,0,0,1-1.461-1.461V34.224a1.46,1.46,0,0,1,1.461-1.461H187.7a1.5,1.5,0,0,1,1.461,1.461Zm49.1,0a7.94,7.94,0,0,1,5.659-2.488c4.944,0,7.556,4.073,7.556,8.707v7.8a1.493,1.493,0,0,1-1.493,1.493h-1.586a1.493,1.493,0,0,1-1.493-1.493V41.22a4.063,4.063,0,0,0-3.514-4.54,3.763,3.763,0,0,0-.591-.031,4.46,4.46,0,0,0-4.353,4.6v7.712a1.46,1.46,0,0,1-1.461,1.461h-1.586a1.46,1.46,0,0,1-1.461-1.461V34.224a1.46,1.46,0,0,1,1.461-1.461h1.337a1.5,1.5,0,0,1,1.461,1.461V35Zm-64.18-2.55A8.87,8.87,0,0,0,164.936,41v.653a9.2,9.2,0,1,0,18.408,0,8.936,8.936,0,0,0-8.644-9.235ZM218.761,43.3a4.613,4.613,0,0,0,5.068,3.483,8.659,8.659,0,0,0,3.327-.746l.5-.249c.56-.311,1.057-.5,1.555,0l.808.808c.249.249.5.529.715.777.746.933.218,1.182-.622,1.741a11.6,11.6,0,0,1-6.374,1.9c-5.846,0-9.733-3.545-9.733-9.453a8.867,8.867,0,0,1,8.458-9.266h1c5.659,0,8.924,3.327,9.017,9.018,0,1.555.093,2.052-1.524,2.052Zm-44.5-6.748A4.832,4.832,0,0,1,178.99,41.5v.124a4.668,4.668,0,0,1-9.3.84,3.793,3.793,0,0,1,0-.84,4.654,4.654,0,0,1,4.291-5.037h.342Zm44.714,2.892h9.08a3.9,3.9,0,0,0-4.415-3.172A4.735,4.735,0,0,0,218.978,39.448Z" transform="translate(-86.897 -4.242)" fill="#3c5ab9"/><g transform="translate(22.866 19.144)"><path d="M47.037,29.547s3.047,3.514,6.126.28-1.8-6.716-1.8-6.716-10.075-8.986-22.171.093a18.254,18.254,0,0,0-6.312,14.49c.311,9.422,8.24,13.868,8.24,13.868a17.751,17.751,0,0,0,19.776-.777s4.944-2.612,2.114-6.934c0,0-2.8-3.141-5.224-.5a9.929,9.929,0,0,1-14.335.218c-5.628-5.286-2.581-16.263,6.343-16.6A9.776,9.776,0,0,1,47.037,29.547Z" transform="translate(-22.866 -19.145)" fill="none" stroke="#3c5ab9" stroke-miterlimit="10" stroke-width="5"/></g><path d="M39.294,39.787A3.794,3.794,0,1,0,35.5,35.994,3.794,3.794,0,0,0,39.294,39.787Z" transform="translate(-8.706 -8.996)" fill="none" stroke="#3c5ab9" stroke-miterlimit="10" stroke-width="5"/><path d="M39.894,101.987A3.794,3.794,0,1,0,36.1,98.194,3.794,3.794,0,0,0,39.894,101.987Z" transform="translate(-9.119 -51.855)" fill="none" stroke="#3c5ab9" stroke-miterlimit="10" stroke-width="5"/></g></svg>