<svg xmlns="http://www.w3.org/2000/svg" width="448" height="343.432" viewBox="0 0 448 343.432"><g transform="translate(-191.968)"><rect width="40.979" height="74.894" transform="translate(192.491 21.196)" fill="#f2f2f2"/><rect width="55.11" height="74.894" transform="translate(314.017 268.015)" fill="#f2f2f2"/><rect width="54.639" height="82.43" transform="translate(259.849 152.613)" fill="#f2f2f2"/><rect width="54.639" height="82.43" transform="translate(314.488 45.219)" fill="#f2f2f2"/><path d="M543.832,432.318H299.263V109.558H543.832ZM300.311,431.27H542.784V110.606H300.311Z" transform="translate(-107.295 -88.885)" fill="#3f3d56"/><path d="M539.561,432.746H398.147V110.457H539.561ZM399.2,431.7H538.514V111.5H399.195Z" transform="translate(-154.366 -89.313)" fill="#3f3d56"/><path d="M543.832,421.162H299.263V312.72H543.832Zm-243.521-1.048H542.784V313.768H300.311Z" transform="translate(-107.295 -185.595)" fill="#3f3d56"/><circle cx="15.544" cy="15.544" r="15.544" transform="translate(228.761 112.105)" fill="#3c5ab9"/><circle cx="15.544" cy="15.544" r="15.544" transform="translate(369.127 7.536)" fill="#3c5ab9"/><rect width="1.048" height="321.241" transform="translate(313.728 21.667)" fill="#3f3d56"/><circle cx="47.574" cy="47.574" r="47.574" transform="translate(266.914 187.469)" fill="#3c5ab9"/><path d="M750.255,209.435l-.385-.975-90.743,35.78L572.35,144.986l107.723-42.474-.385-.975-108.07,42.611-26.8-30.654,4.419-1.721a31.643,31.643,0,0,1-9.647-3.464,31.674,31.674,0,0,1,2.144,10.024l2.3-4.15,26.555,30.373L405.788,209.534l-.135-4.74a31.642,31.642,0,0,1-6.505,7.921,31.67,31.67,0,0,1,10.161,1.351l-3.137-3.557,165.143-65.115,86.777,99.254L475.97,316.458l-.135-4.74a31.642,31.642,0,0,1-6.505,7.921,31.672,31.672,0,0,1,10.161,1.351l-3.137-3.557,182.47-71.947,78.994,90.35.789-.69L659.86,245.077Z" transform="translate(-154.843 -85.067)" fill="#3f3d56"/><rect width="89.495" height="34.385" transform="translate(550.472 106.923)" fill="#3f3d56"/><rect width="57.937" height="2.826" transform="translate(566.252 116.109)" fill="#f2f2f2"/><rect width="57.937" height="2.826" transform="translate(566.252 122.703)" fill="#f2f2f2"/><rect width="57.937" height="2.826" transform="translate(566.252 129.297)" fill="#f2f2f2"/><rect width="89.495" height="34.385" transform="translate(480.289)" fill="#3f3d56"/><rect width="57.937" height="2.826" transform="translate(496.069 9.185)" fill="#f2f2f2"/><rect width="57.937" height="2.826" transform="translate(496.069 15.779)" fill="#f2f2f2"/><rect width="57.937" height="2.826" transform="translate(496.069 22.374)" fill="#f2f2f2"/><rect width="89.495" height="34.385" transform="translate(538.697 233.159)" fill="#3f3d56"/><rect width="57.937" height="2.826" transform="translate(554.476 242.343)" fill="#f2f2f2"/><rect width="57.937" height="2.826" transform="translate(554.476 248.938)" fill="#f2f2f2"/><rect width="57.937" height="2.826" transform="translate(554.476 255.532)" fill="#f2f2f2"/></g></svg>