<svg xmlns="http://www.w3.org/2000/svg" width="448" height="243.839" viewBox="0 0 448 243.839"><g transform="translate(-431.727 -3509)"><g transform="translate(433.974 3509)"><circle cx="52.416" cy="52.416" r="52.416" transform="translate(340.92 89.572)" fill="#f2f2f2"/><circle cx="52.416" cy="52.416" r="52.416" transform="translate(332.397 81.902)" fill="#3f3d56"/><rect width="67.507" height="0.799" transform="translate(305.008 242.848)" fill="#3f3d56"/><path d="M719,495.3a65.2,65.2,0,1,1,65.2,65.2A65.275,65.275,0,0,1,719,495.3Zm.852,0A64.349,64.349,0,1,0,784.2,430.947,64.421,64.421,0,0,0,719.852,495.3Z" transform="translate(-445.412 -316.658)" fill="#3f3d56"/><path d="M364.512,251.52,77.713,208.9,77.5,432.847H449.955Zm-34.305,70.528a66.209,66.209,0,0,1-6.034,27.708q-.646,1.413-1.359,2.787a66.1,66.1,0,0,1-6.72,10.466q-1.969,2.512-4.163,4.82-1.611,1.7-3.341,3.281a66.226,66.226,0,0,1-36.363,16.88,67.335,67.335,0,0,1-8.5.537,66.477,66.477,0,0,1-5.6-132.724l.456-.038c1.159-.09,2.331-.149,3.507-.175.545-.013,1.091-.021,1.641-.021a66.62,66.62,0,0,1,11.1.925c.507.081,1.01.175,1.513.268.311.06.618.124.925.188a66.492,66.492,0,0,1,52.945,65.094Z" transform="translate(-77.287 -189.728)" fill="#3f3d56"/><rect width="76.335" height="0.858" transform="translate(277.535 24.736)" fill="#3f3d56"/><rect width="76.335" height="0.858" transform="translate(277.535 30.74)" fill="#3f3d56"/><rect width="76.335" height="0.858" transform="translate(277.535 36.744)" fill="#3f3d56"/><path d="M450.307,407.663H77V163.905H450.307ZM77.852,406.81h371.6V164.757H77.852Z" transform="translate(-77 -163.905)" fill="#3f3d56"/><circle cx="3.884" cy="3.884" r="3.884" transform="translate(258.695 74.13)" fill="#d0cde1"/><circle cx="1.726" cy="1.726" r="1.726" transform="translate(283.525 148.592)" fill="#d0cde1"/><circle cx="1.726" cy="1.726" r="1.726" transform="translate(259.235 229.134)" fill="#d0cde1"/><circle cx="1.726" cy="1.726" r="1.726" transform="translate(28.261 224.02)" fill="#d0cde1"/><circle cx="1.726" cy="1.726" r="1.726" transform="translate(109.656 76.573)" fill="#d0cde1"/><path d="M668.716,255.284h-.863v-.863h-.432v.863h-.863v.432h.863v.863h.432v-.863h.863Z" transform="translate(-382.504 -145.999)" fill="#d0cde1"/><path d="M737.716,445.284h-.863v-.863h-.432v.863h-.863v.432h.863v.863h.432v-.863h.863Z" transform="translate(-422.1 -255.031)" fill="#d0cde1"/><path d="M507.716,529.284h-.863v-.863h-.432v.863h-.863v.432h.863v.863h.432v-.863h.863Z" transform="translate(-290.115 -303.234)" fill="#d0cde1"/><path d="M375.716,137.284h-.863v-.863h-.432v.863h-.863v.432h.863v.863h.432v-.863h.863Z" transform="translate(-214.366 -78.285)" fill="#d0cde1"/><path d="M17.716,216.284h-.863v-.863h-.432v.863h-.863v.432h.863v.863h.432v-.863h.863Z" transform="translate(-8.928 -123.619)" fill="#d0cde1"/><path d="M56.716,145.284h-.863v-.863h-.432v.863h-.863v.432h.863v.863h.432v-.863h.863Z" transform="translate(-31.308 -82.876)" fill="#d0cde1"/><path d="M339.716,532.284h-.863v-.863h-.432v.863h-.863v.432h.863v.863h.432v-.863h.863Z" transform="translate(-193.708 -304.956)" fill="#d0cde1"/><path d="M187.716,114.284h-.863v-.863h-.432v.863h-.863v.432h.863v.863h.432v-.863h.863Z" transform="translate(-106.482 -65.087)" fill="#d0cde1"/><path d="M20.716,347.284h-.863v-.863h-.432v.863h-.863v.432h.863v.863h.432v-.863h.863Z" transform="translate(-10.65 -198.794)" fill="#d0cde1"/><path d="M173.716,234.284h-.863v-.863h-.432v.863h-.863v.432h.863v.863h.432v-.863h.863Z" transform="translate(-98.449 -133.949)" fill="#d0cde1"/><path d="M176.716,524.284h-.863v-.863h-.432v.863h-.863v.432h.863v.863h.432v-.863h.863Z" transform="translate(-100.17 -300.365)" fill="#d0cde1"/><path d="M267.716,459.284h-.863v-.863h-.432v.863h-.863v.432h.863v.863h.432v-.863h.863Z" transform="translate(-152.391 -263.065)" fill="#d0cde1"/><path d="M768.716,537.284h-.863v-.863h-.432v.863h-.863v.432h.863v.863h.432v-.863h.863Z" transform="translate(-439.889 -307.825)" fill="#d0cde1"/><circle cx="4.305" cy="4.305" r="4.305" transform="translate(7.46 4.293)" fill="#3c5ab9"/><ellipse cx="3.875" cy="4.305" rx="3.875" ry="4.305" transform="translate(20.376 4.293)" fill="#3c5ab9"/><circle cx="4.305" cy="4.305" r="4.305" transform="translate(32.432 4.293)" fill="#3c5ab9"/></g><g transform="translate(431.727 3551.239)"><path d="M851.645,385.451a1.793,1.793,0,1,0,0,3.585h44.947a1.793,1.793,0,0,0,.059-3.585H851.645Z" transform="translate(-599.575 -249.029)" fill="#3f3d56"/><path d="M1032.731,383.555a.353.353,0,0,0,0,.5l1.514,1.514h-3.733a.353.353,0,0,0,0,.705h3.735l-1.514,1.514a.353.353,0,0,0,.5.5l2.116-2.116a.353.353,0,0,0,0-.5l-2.116-2.116a.353.353,0,0,0-.5,0Z" transform="translate(-725.525 -247.631)" fill="#fff"/><path d="M815.629,383.558a.353.353,0,0,1,0,.5l-1.514,1.514h3.734a.353.353,0,0,1,0,.705h-3.734l1.514,1.514a.353.353,0,0,1-.5.5l-2.117-2.116a.353.353,0,0,1,0-.5l2.117-2.116A.353.353,0,0,1,815.629,383.558Z" transform="translate(-537.678 -349.91)" fill="#fff"/><g transform="translate(52.084 145.65)" opacity="0.4"><circle cx="1.926" cy="1.926" r="1.926" transform="translate(0 0)" fill="#fff"/><circle cx="1.926" cy="1.926" r="1.926" transform="translate(8.027 0)" fill="#fff"/><circle cx="1.926" cy="1.926" r="1.926" transform="translate(16.053 0)" fill="#fff"/><circle cx="1.926" cy="1.926" r="1.926" transform="translate(24.08 0)" fill="#fff"/><circle cx="1.926" cy="1.926" r="1.926" transform="translate(32.107 0)" fill="#fff"/><circle cx="1.926" cy="1.926" r="1.926" transform="translate(40.133 0)" fill="#fff"/><circle cx="1.926" cy="1.926" r="1.926" transform="translate(48.16 0)" fill="#fff"/><circle cx="1.926" cy="1.926" r="1.926" transform="translate(0 6.1)" fill="#fff"/><circle cx="1.926" cy="1.926" r="1.926" transform="translate(8.027 6.1)" fill="#fff"/><circle cx="1.926" cy="1.926" r="1.926" transform="translate(16.053 6.1)" fill="#fff"/><circle cx="1.926" cy="1.926" r="1.926" transform="translate(24.08 6.1)" fill="#fff"/><circle cx="1.926" cy="1.926" r="1.926" transform="translate(32.107 6.1)" fill="#fff"/><circle cx="1.926" cy="1.926" r="1.926" transform="translate(40.133 6.1)" fill="#fff"/><circle cx="1.926" cy="1.926" r="1.926" transform="translate(48.16 6.1)" fill="#fff"/><circle cx="1.926" cy="1.926" r="1.926" transform="translate(0 12.201)" fill="#fff"/><circle cx="1.926" cy="1.926" r="1.926" transform="translate(8.027 12.201)" fill="#fff"/><circle cx="1.926" cy="1.926" r="1.926" transform="translate(16.053 12.201)" fill="#fff"/><circle cx="1.926" cy="1.926" r="1.926" transform="translate(24.08 12.201)" fill="#fff"/><circle cx="1.926" cy="1.926" r="1.926" transform="translate(32.107 12.201)" fill="#fff"/><circle cx="1.926" cy="1.926" r="1.926" transform="translate(40.133 12.201)" fill="#fff"/><circle cx="1.926" cy="1.926" r="1.926" transform="translate(48.16 12.201)" fill="#fff"/><circle cx="1.926" cy="1.926" r="1.926" transform="translate(0 18.301)" fill="#fff"/><circle cx="1.926" cy="1.926" r="1.926" transform="translate(8.027 18.301)" fill="#fff"/><circle cx="1.926" cy="1.926" r="1.926" transform="translate(0 24.401)" fill="#fff"/><circle cx="1.926" cy="1.926" r="1.926" transform="translate(8.027 24.401)" fill="#fff"/><circle cx="1.926" cy="1.926" r="1.926" transform="translate(16.053 24.401)" fill="#fff"/><circle cx="1.926" cy="1.926" r="1.926" transform="translate(16.053 18.301)" fill="#fff"/><circle cx="1.926" cy="1.926" r="1.926" transform="translate(24.08 18.301)" fill="#fff"/><circle cx="1.926" cy="1.926" r="1.926" transform="translate(32.107 18.301)" fill="#fff"/><circle cx="1.926" cy="1.926" r="1.926" transform="translate(40.133 18.301)" fill="#fff"/><circle cx="1.926" cy="1.926" r="1.926" transform="translate(48.16 18.301)" fill="#fff"/></g><path d="M745.518,531.442a10.634,10.634,0,1,1,10.634-10.634A10.634,10.634,0,0,1,745.518,531.442Zm0-20.665a10.031,10.031,0,1,0,10.031,10.031,10.031,10.031,0,0,0-10.031-10.031Z" transform="translate(-593.974 -428.199)" fill="#3f3d56"/><path d="M762.426,532.619h-3.058v-3.058a1.019,1.019,0,0,0-2.039,0v3.058h-3.058a1.019,1.019,0,0,0,0,2.038h3.058v3.058a1.019,1.019,0,0,0,2.038,0v-3.058h3.058a1.019,1.019,0,0,0,0-2.038Z" transform="translate(-606.805 -441.03)" fill="#fff"/><path d="M369.963,238.262H269.347a1.866,1.866,0,0,0-1.864,1.864v86.036a1.866,1.866,0,0,0,1.864,1.864H369.963a1.866,1.866,0,0,0,1.864-1.864V240.126A1.866,1.866,0,0,0,369.963,238.262Zm1.117,87.9a1.121,1.121,0,0,1-1.117,1.12H269.347a1.119,1.119,0,0,1-1.117-1.12V240.126a1.119,1.119,0,0,1,1.117-1.12H369.963a1.121,1.121,0,0,1,1.117,1.12Z" transform="translate(-267.484 -238.262)" fill="#3f3d56"/><path d="M315.531,467.681c0,.133,0,.265-.01.394a7.59,7.59,0,0,1-15.158,0c-.007-.129-.01-.262-.01-.394a7.59,7.59,0,0,1,15.179,0Z" transform="translate(-290.443 -393.215)" fill="#fff"/><path d="M440.367,468.479H380.731a1.265,1.265,0,1,0,0,2.53h59.636a1.265,1.265,0,0,0,0-2.53Z" transform="translate(-345.706 -399.074)" fill="#3f3d56"/><path d="M406.4,493.66H380.735a1.263,1.263,0,1,0,0,2.527H406.4a1.263,1.263,0,1,0,0-2.527Z" transform="translate(-345.71 -416.663)" fill="#fff"/><path d="M447.6,324.59H346.986a2.58,2.58,0,0,1-2.577-2.578V277.857a2.58,2.58,0,0,1,2.577-2.577H447.6a2.58,2.58,0,0,1,2.577,2.577v44.155A2.58,2.58,0,0,1,447.6,324.59ZM346.986,276.184a1.675,1.675,0,0,0-1.673,1.673v44.155a1.675,1.675,0,0,0,1.673,1.673H447.6a1.675,1.675,0,0,0,1.673-1.673V277.857a1.675,1.675,0,0,0-1.673-1.673Z" transform="translate(-321.218 -264.12)" fill="#fff"/><path d="M417.993,328.7a1.265,1.265,0,0,0,0,2.53h59.634a1.265,1.265,0,1,0,0-2.53Z" transform="translate(-371.734 -301.434)" fill="#fff"/><path d="M417.993,353.012a1.265,1.265,0,0,0,0,2.53h59.634a1.265,1.265,0,1,0,0-2.53Z" transform="translate(-371.734 -318.418)" fill="#fff"/><path d="M417.993,377.03a1.265,1.265,0,0,0,0,2.53h25.661a1.265,1.265,0,1,0,0-2.53Z" transform="translate(-371.734 -335.195)" fill="#fff"/><path d="M713.487,465.023l-10.105-14.262,3.271.682a.453.453,0,1,0,.185-.886l-4.875-1.015-.658,4.935a.453.453,0,1,0,.9.12l.441-3.314,10.106,14.263a.452.452,0,1,0,.738-.523Z" transform="translate(-570.515 -385.846)" fill="#fff"/><g transform="translate(14.927 100.209)"><path d="M390.156,591.133H318.327A1.332,1.332,0,0,1,317,589.8V571.985a1.332,1.332,0,0,1,1.33-1.33h71.829a1.332,1.332,0,0,1,1.33,1.33V589.8A1.332,1.332,0,0,1,390.156,591.133Zm-71.829-19.946a.8.8,0,0,0-.8.8V589.8a.8.8,0,0,0,.8.8h71.829a.8.8,0,0,0,.8-.8V571.985a.8.8,0,0,0-.8-.8Z" transform="translate(-316.997 -570.655)" fill="#3f3d56"/><circle cx="5.418" cy="5.418" r="5.418" transform="translate(7.072 4.137)" fill="#fff"/><path d="M397.846,590.368a.9.9,0,1,0,0,1.806h42.573a.9.9,0,0,0,0-1.806Z" transform="translate(-372.841 -584.425)" fill="#fff"/><path d="M397.846,608.341a.9.9,0,1,0,0,1.806h18.319a.9.9,0,0,0,0-1.806Z" transform="translate(-372.841 -596.979)" fill="#fff"/></g><path d="M870.942,428.016h31.924a1.332,1.332,0,0,1,1.33,1.33v33.247a1.332,1.332,0,0,1-1.33,1.33H870.942a1.332,1.332,0,0,1-1.33-1.33V429.346A1.332,1.332,0,0,1,870.942,428.016Zm31.924,35.376a.8.8,0,0,0,.8-.8V429.346a.8.8,0,0,0-.8-.8H870.942a.8.8,0,0,0-.8.8v33.247a.8.8,0,0,0,.8.8Z" transform="translate(-613.378 -278.761)" fill="#3f3d56"/><path d="M912.815,520.2a.9.9,0,1,0,0-1.806H894.5a.9.9,0,0,0,0,1.806Z" transform="translate(-630.129 -341.889)" fill="#fff"/><path d="M912.815,502.546a.9.9,0,1,0,0-1.806H894.5a.9.9,0,0,0,0,1.806Z" transform="translate(-630.129 -329.561)" fill="#fff"/><path d="M913.8,450.758a5.684,5.684,0,1,1-5.684,5.684A5.684,5.684,0,0,1,913.8,450.758Z" transform="translate(-640.273 -294.647)" fill="#fff"/></g></g></svg>