<svg xmlns="http://www.w3.org/2000/svg" width="212.999" height="212.999" viewBox="0 0 212.999 212.999"><path d="M106.5,0C47.925,0,0,47.925,0,106.5S47.925,213,106.5,213,213,165.074,213,106.5,165.074,0,106.5,0ZM47.259,165.74c-15.975-15.975-24.3-37.275-24.3-57.576l82.87,82.2c-21.3-1-42.6-8.653-58.575-24.628Zm77.545,22.3L24.961,88.195C33.614,50.92,66.895,22.964,106.5,22.964a82.865,82.865,0,0,1,67.561,34.28l-11.316,9.984C149.765,49.589,129.463,37.94,106.5,37.94a68.833,68.833,0,0,0-64.565,45.6l87.529,87.529a69.38,69.38,0,0,0,44.264-49.589H137.118V106.5h53.25c-.333,39.6-28.289,72.886-65.564,81.539Z" fill="#3f51b5"/></svg>