<svg xmlns="http://www.w3.org/2000/svg" xmlns:xlink="http://www.w3.org/1999/xlink" width="187" height="49" viewBox="0 0 187 49"><defs><clipPath id="a"><rect width="187" height="49" fill="#3c5ab9"/></clipPath></defs><g clip-path="url(#a)"><path d="M81.838,17.172h4.93V34.778h-4.93V32.489a5.992,5.992,0,0,1-5.458,2.817c-5.458,0-8.979-4.225-8.979-9.331,0-5.282,3.521-9.331,8.627-9.331a6.094,6.094,0,0,1,5.634,2.817V17.172Zm-9.155,8.8a4.713,4.713,0,0,0,4.93,4.93,4.814,4.814,0,0,0,4.93-4.93,4.713,4.713,0,0,0-4.93-4.93A4.814,4.814,0,0,0,72.683,25.975ZM96.451,21.4v13.38h-4.93V21.4H89.585V17.172h1.937V11.186h4.93v5.986H99.8V21.4Zm14.965,0a4.431,4.431,0,0,0-2.817-1.232c-1.232,0-1.937.528-1.937,1.408,0,.528.176,1.056,1.585,1.585l1.232.352c1.408.528,3.521,1.056,4.4,2.465a5.036,5.036,0,0,1,.88,2.993,5.647,5.647,0,0,1-1.937,4.4,7.793,7.793,0,0,1-5.282,1.937,8.988,8.988,0,0,1-6.866-2.993l2.641-2.993c1.056,1.056,2.465,2.113,3.873,2.113s2.465-.7,2.465-1.937a1.885,1.885,0,0,0-1.585-1.761l-1.056-.352a11.17,11.17,0,0,1-3.7-2.113,4.508,4.508,0,0,1-1.408-3.345,5.8,5.8,0,0,1,1.761-4.049,7.522,7.522,0,0,1,4.578-1.232,8.869,8.869,0,0,1,5.634,1.937L111.416,21.4Zm10.74-1.937a6.681,6.681,0,0,1,5.634-2.817c5.106,0,8.627,4.049,8.627,9.331s-3.521,9.331-8.8,9.331a6.759,6.759,0,0,1-5.634-2.817v2.289h-4.754V5.2h4.93V19.461Zm-.528,6.514a4.713,4.713,0,0,0,4.93,4.93,4.814,4.814,0,0,0,4.93-4.93,4.93,4.93,0,1,0-9.859,0Zm22.888,6.162-8.451-14.965h5.81l5.458,10.035,4.93-10.035H157.9L143.811,44.109h-5.634ZM66.169,20.165H53.845v4.93h6.514c-1.056,3.345-3.521,5.634-8.1,5.634-5.106,0-8.8-4.225-8.8-9.331s3.521-9.507,8.627-9.507a9.514,9.514,0,0,1,7.394,3.7l4.049-2.641a13.938,13.938,0,0,0-11.444-5.81A14.164,14.164,0,0,0,38,21.4a14.086,14.086,0,1,0,28.169,0,2.877,2.877,0,0,0,0-1.232Z" transform="translate(28.902 3.955)" fill="#3c5ab9"/><path d="M24.648,0A24.648,24.648,0,1,0,49.3,24.648,24.721,24.721,0,0,0,24.648,0ZM10.916,38.381A19.111,19.111,0,0,1,5.282,25l19.19,19.014A19.985,19.985,0,0,1,10.916,38.381Zm17.958,5.106L5.81,20.423A19.354,19.354,0,0,1,40.317,13.2l-2.641,2.289A16.254,16.254,0,0,0,24.648,8.8,16.013,16.013,0,0,0,9.683,19.366L29.93,39.613A15.961,15.961,0,0,0,40.141,28.169H31.69V24.648H44.014A19.421,19.421,0,0,1,28.873,43.486Z" fill="#3c5ab9"/></g></svg>