<svg xmlns="http://www.w3.org/2000/svg" width="446" height="203.805" viewBox="0 0 446 203.805"><g transform="translate(-191.208)"><path d="M739.691,359.2H305.159a5.741,5.741,0,0,1-5.734-5.734V183.985a5.741,5.741,0,0,1,5.734-5.734H739.691a5.741,5.741,0,0,1,5.734,5.734v169.48a5.741,5.741,0,0,1-5.734,5.734ZM305.159,179.525a4.465,4.465,0,0,0-4.46,4.46v169.48a4.465,4.465,0,0,0,4.46,4.46H739.691a4.465,4.465,0,0,0,4.46-4.46V183.985a4.465,4.465,0,0,0-4.46-4.46Z" transform="translate(-108.217 -178.251)" fill="#3f3d56"/><path d="M608.485,328.788H576.75c-1.985-17.653,2.394-30.812,0-38.082h31.734a198.666,198.666,0,0,0,0,38.081Z" transform="translate(-208.653 -219.056)" fill="#ff6584"/><path d="M911.484,383.788H879.75c-1.985-17.653,2.394-30.812,0-38.081h31.735a198.655,198.655,0,0,0,0,38.081Z" transform="translate(-318.599 -239.014)" fill="#3c5ab9"/><path d="M352.561,354.352H320.826c1.19-14.643,5.026-28.316,0-38.081h31.735Q361.524,335.311,352.561,354.352Z" transform="translate(-115.983 -228.332)" fill="#e6e6e6"/><path d="M392.561,431.352H360.826c1.19-14.643,5.027-28.316,0-38.082h31.735Q401.524,412.311,392.561,431.352Z" transform="translate(-130.497 -256.272)" fill="#e6e6e6"/><path d="M832.561,290.352H800.826c1.19-14.643,5.026-28.316,0-38.082h31.735Q841.524,271.311,832.561,290.352Z" transform="translate(-290.154 -205.11)" fill="#3c5ab9"/><path d="M685.561,368.352H653.826c1.19-14.643,5.026-28.316,0-38.081h31.735Q694.523,349.311,685.561,368.352Z" transform="translate(-236.814 -233.412)" fill="#e6e6e6"/><path d="M419,303.437h31.735c1.985-14.645-2.394-28.318,0-38.082H419Q410.034,284.4,419,303.437Z" transform="translate(-149.979 -209.858)" fill="#3f3d56"/><path d="M420.954,213.8H361.7a1.274,1.274,0,1,1,0-2.549h59.254a1.274,1.274,0,1,1,0,2.549Z" transform="translate(-130.351 -190.225)" fill="#3f3d56"/><path d="M661.954,213.8H602.7a1.274,1.274,0,1,1,0-2.549h59.254a1.274,1.274,0,0,1,0,2.549Z" transform="translate(-217.8 -190.225)" fill="#3f3d56"/><path d="M902.953,213.8H843.7a1.274,1.274,0,0,1,0-2.549h59.254a1.274,1.274,0,1,1,0,2.549Z" transform="translate(-305.249 -190.225)" fill="#3f3d56"/><rect width="1" height="179" transform="translate(337.208)" fill="#3f3d56"/><rect width="2" height="179" transform="translate(490.208)" fill="#3f3d56"/><path d="M895,476.437h31.735c1.985-14.645-2.394-28.318,0-38.082H895Q886.034,457.4,895,476.437Z" transform="translate(-322.698 -272.632)" fill="#3f3d56"/></g></svg>