<svg xmlns="http://www.w3.org/2000/svg" width="259.549" height="261.266" viewBox="0 0 259.549 261.266"><g transform="translate(-353.716 -1568.859)"><path d="M933.328,519.805H913.387v-3.3h19.941Zm-39.881,0h-19.94v-3.3h19.94Zm-39.881,0h-19.94v-3.3h19.94Zm-39.881,0H793.744v-3.3h19.94Zm-39.881,0h-19.94v-3.3H773.8Zm-39.881,0h-19.94v-3.3h19.94Zm-39.881,0H674.1v-3.3h19.94Z" transform="translate(873.521 894.757) rotate(90)" fill="#3f3d56"/><path d="M933.328,519.805H913.387v-3.3h19.941Zm-39.881,0h-19.94v-3.3h19.94Zm-39.881,0h-19.94v-3.3h19.94Zm-39.881,0H793.744v-3.3h19.94Zm-39.881,0h-19.94v-3.3H773.8Zm-39.881,0h-19.94v-3.3h19.94Zm-39.881,0H674.1v-3.3h19.94Z" transform="translate(-320.062 1310.319)" fill="#3f3d56"/></g></svg>