<svg xmlns="http://www.w3.org/2000/svg" width="162" height="58.009" viewBox="0 0 162 58.009"><g transform="translate(-0.178 -0.051)"><path d="M41.023,20.566a2.454,2.454,0,0,1,.739.561c.025.024.025.024.049.024h.025L47.5,18.736c.025-.024.049-.049.049-.073a.089.089,0,0,0-.025-.073l-5.3-5.245a.077.077,0,0,0-.049-.024h-.025c-.025,0-.049.024-.049.073l-1.158,7.1C40.974,20.517,41,20.566,41.023,20.566ZM29.272,15.809a3.152,3.152,0,0,1,.493,1.39c0,.024.025.049.049.073l8.425,3.586h.025c.025,0,.049,0,.049-.024a2.61,2.61,0,0,1,.862-.439c.025,0,.049-.024.049-.073L40.6,11.76a.089.089,0,0,0-.025-.073L35.308,6.442c-.025-.024-.025-.024-.049-.024a.053.053,0,0,0-.049.049l-5.937,9.221A.108.108,0,0,0,29.272,15.809Zm28.774,13.2L49,20.029A.077.077,0,0,0,48.956,20h-.025L42.8,22.615c-.025.024-.049.049-.049.073s.025.073.049.073l15.126,6.416h.025c.025,0,.049,0,.049-.024l.049-.049C58.1,29.1,58.1,29.031,58.046,29.006Zm-1.5,1.464-14.51-6.147h-.025a.091.091,0,0,0-.074.024,2.47,2.47,0,0,1-1.675.976.078.078,0,0,0-.074.073l-1.552,9.538a.089.089,0,0,0,.025.073,2.444,2.444,0,0,1,.936,1.708.065.065,0,0,0,.074.073l8.77,1.829h.025c.025,0,.049,0,.049-.024l8.031-7.977a.121.121,0,0,0,0-.146ZM37.328,22.322,29.4,18.956h-.025c-.025,0-.049.024-.074.049a2.9,2.9,0,0,1-2.439,1.317,3.4,3.4,0,0,1-.468-.049h-.025c-.025,0-.049.024-.074.049L19.763,30.445a.074.074,0,0,0,0,.1.091.091,0,0,0,.074.024h.025l17.417-7.44c.025-.024.049-.049.049-.073v-.22a2.126,2.126,0,0,1,.049-.415A.126.126,0,0,0,37.328,22.322Zm9.558,17.71-7.711-1.586h-.025c-.025,0-.049.024-.074.024a2.656,2.656,0,0,1-1.109.829c-.025,0-.049.049-.049.073L36.071,50.741a.126.126,0,0,0,.049.1h.049c.025,0,.049,0,.049-.024L46.911,40.2a.089.089,0,0,0,.025-.073C46.936,40.057,46.911,40.032,46.886,40.032Zm-10.765-.781a2.518,2.518,0,0,1-1.478-1.708q0-.037-.074-.073L20.28,34.519h-.025c-.025,0-.049.024-.074.049a3.62,3.62,0,0,1-.2.317.074.074,0,0,0,0,.1L32.992,53.815c.025.024.025.024.049.024s.049,0,.049-.024l.788-.781c0-.024.025-.024.025-.049l2.217-13.661C36.17,39.325,36.17,39.276,36.121,39.252ZM20.576,32.787a.065.065,0,0,0,.074.073l14.165,2.927h.025c.025,0,.049-.024.074-.049a2.476,2.476,0,0,1,2-1.268.065.065,0,0,0,.074-.073l1.527-9.392c0-.024,0-.073-.049-.073a2.693,2.693,0,0,1-.32-.268.076.076,0,0,0-.049-.024h-.025L20.551,32.129c-.049.024-.049.049-.049.1A4.368,4.368,0,0,1,20.576,32.787Zm-5.937,2.366a3.569,3.569,0,0,1-.222-.317c-.025-.024-.049-.049-.074-.049h-.025L8.209,37.4a.053.053,0,0,0-.049.049.089.089,0,0,0,.025.073l2.981,2.952a.077.077,0,0,0,.049.024c.025,0,.049-.024.074-.049L14.664,35.2A.075.075,0,0,0,14.639,35.154Zm4.04.951c-.025-.024-.049-.049-.074-.049h-.025a3.307,3.307,0,0,1-1.355.293,3.352,3.352,0,0,1-1.084-.171h-.025c-.025,0-.049.024-.074.049L12.5,41.74l-.025.024a.074.074,0,0,0,0,.1L28.78,58.035a.077.077,0,0,0,.049.024c.025,0,.049,0,.049-.024l2.858-2.854a.074.074,0,0,0,0-.1Zm-2.291-6.367c.025.024.049.049.074.049h.025a4.094,4.094,0,0,1,.764-.1,3.313,3.313,0,0,1,.838.122h.025c.025,0,.049-.024.074-.049l6.6-10.245a.074.074,0,0,0,0-.1,2.871,2.871,0,0,1-.813-2,3,3,0,0,1,.074-.659.127.127,0,0,0-.049-.1c-.838-.366-8.253-3.488-8.253-3.513h-.025c-.025,0-.049,0-.049.024L9.392,19.419a.074.074,0,0,0,0,.1ZM17.1,11.882s7.489,3.171,7.809,3.317h.025c.025,0,.025,0,.049-.024a3,3,0,0,1,1.848-.659,3.283,3.283,0,0,1,.961.146h.025c.025,0,.049-.024.074-.049l6.085-9.44a.074.074,0,0,0,0-.1l-5.05-5C28.9.051,28.9.051,28.878.051s-.049,0-.049.024L17.1,11.735a.089.089,0,0,0-.025.073C17.053,11.857,17.078,11.857,17.1,11.882ZM14.2,31.519c.025,0,.049-.024.074-.049a3.774,3.774,0,0,1,.591-.805.074.074,0,0,0,0-.1c-.074-.1-6.75-9.757-6.75-9.782a.188.188,0,0,0-.074-.049c-.025,0-.049,0-.049.024L.2,28.47a.089.089,0,0,0-.025.073c0,.024.025.049.074.049L14.2,31.519Zm-.64,1.683a.065.065,0,0,0-.074-.073l-12.1-2.513H1.361c-.025,0-.049.024-.074.049s0,.073.025.1l5.4,5.367a.077.077,0,0,0,.049.024H6.78l6.7-2.854C13.53,33.251,13.555,33.226,13.555,33.2Z" transform="translate(0 0)" fill="#3c5ab9" fill-rule="evenodd"/><path d="M120.3,15.089h3.941V40.507H120.3ZM79.974,22.26a6.319,6.319,0,0,0-5.124,2.391l-.123-2.074h-3.7V40.483h3.942V27.749a3.806,3.806,0,0,1,3.547-2.2,2.991,2.991,0,0,1,2.365.829A3.655,3.655,0,0,1,81.6,28.9V40.483h3.942V28.652C85.493,24.407,83.645,22.26,79.974,22.26ZM97,22.26a7.464,7.464,0,0,0-4.089,1.171,7.831,7.831,0,0,0-2.858,3.293,11.082,11.082,0,0,0-1.01,4.781v.488a8.874,8.874,0,0,0,2.34,6.416,8.057,8.057,0,0,0,6.085,2.415,8.843,8.843,0,0,0,3.967-.878,6.912,6.912,0,0,0,2.808-2.488l-2.119-2.074a5.316,5.316,0,0,1-4.409,2.244,4.33,4.33,0,0,1-3.2-1.293,5.362,5.362,0,0,1-1.453-3.513h11.48v-1.61a10.144,10.144,0,0,0-1.947-6.611A6.993,6.993,0,0,0,97,22.26Zm3.6,7.611H93.08a5.869,5.869,0,0,1,1.281-3.22,3.658,3.658,0,0,1,5.2-.122,5.006,5.006,0,0,1,1.059,3.049v.293Zm12.81,7.172a2.2,2.2,0,0,1-.394-1.488v-10h3.1V22.577h-3.1V18.235h-3.942v4.342h-2.883v2.976h2.883V35.7c0,3.415,1.528,5.123,4.557,5.123a9.171,9.171,0,0,0,2.612-.39V37.311a5.485,5.485,0,0,1-1.38.171A1.734,1.734,0,0,1,113.4,37.043ZM130.353,22.6h3.941V40.507h-3.941ZM156.664,34.75,152.943,22.6h-4.261l6.183,17.808-.567,1.537a3.552,3.552,0,0,1-1.207,1.854,3.782,3.782,0,0,1-2.242.561l-.739-.049v3.122a7.064,7.064,0,0,0,1.9.293c2.562,0,4.385-1.512,5.469-4.513l7-20.613H160.26ZM142.03,16.357a6.2,6.2,0,0,0-1.627,4.61V22.6h-2.685v2.976H140.4V40.507h3.942V25.578h3.572V22.6h-3.572V21.016c0-1.976.936-2.952,2.833-2.952a8.906,8.906,0,0,1,1.5.122l.1-3.147a9.1,9.1,0,0,0-2.218-.293A6.088,6.088,0,0,0,142.03,16.357Zm-7.736-1.634v3.513h-3.941V14.723Z" transform="translate(-2.294 -0.475)" fill="#3c5ab9" fill-rule="evenodd"/></g></svg>