<svg xmlns="http://www.w3.org/2000/svg" width="122" height="73.762" viewBox="0 0 122 73.762"><path d="M28.932,19.445H51.942v1.833h-20.9V35.073H50.7v1.833H31.041V52.051h21.14v1.833H28.932V19.445Zm25.072,0h2.445L67.282,34.59,78.356,19.445,93.418.207,68.673,36.182l12.751,17.7H78.883l-11.6-16.11L55.634,53.884H53.141l12.847-17.7L54,19.445Zm28.332,1.833V19.445h26.222v1.833H96.477V53.883h-2.11V21.278H82.336ZM.145,19.445H2.782L39.139,73.969,24.114,53.884,2.35,22.049l-.1,31.835H.145V19.445ZM108.345,51.5a.767.767,0,1,1,.753-.767.746.746,0,0,1-.753.767Zm2.072-2.018h1.129a1.032,1.032,0,0,0,1.119,1.024c.734,0,1.149-.442,1.149-1.271V43.982h1.149v5.256a2.127,2.127,0,0,1-2.288,2.354,2.069,2.069,0,0,1-2.257-2.111Zm6.049-.066H117.6c.1.7.785,1.152,1.775,1.152.923,0,1.6-.479,1.6-1.138,0-.566-.43-.906-1.411-1.138l-.954-.231c-1.338-.314-1.95-.963-1.95-2.054,0-1.323,1.077-2.2,2.693-2.2a2.417,2.417,0,0,1,2.668,2.131h-1.119a1.414,1.414,0,0,0-1.565-1.112c-.909,0-1.513.438-1.513,1.107,0,.53.39.834,1.355,1.061l.815.2c1.518.355,2.145.973,2.145,2.09,0,1.421-1.1,2.312-2.852,2.312-1.641,0-2.745-.85-2.827-2.178Z" transform="translate(-0.145 -0.207)" fill="#3c5ab9"/></svg>