<svg xmlns="http://www.w3.org/2000/svg" xmlns:xlink="http://www.w3.org/1999/xlink" width="1920" height="1080" viewBox="0 0 1920 1080"><defs><filter id="a" x="647.5" y="198.5" width="626" height="626" filterUnits="userSpaceOnUse"><feOffset input="SourceAlpha"/><feGaussianBlur stdDeviation="16.5" result="b"/><feFlood/><feComposite operator="in" in2="b"/><feComposite in="SourceGraphic"/></filter><radialGradient id="c" cx="0.5" cy="0.5" r="0.236" gradientTransform="translate(0 -0.432) scale(1 1.864)" gradientUnits="objectBoundingBox"><stop offset="0" stop-color="#fff"/><stop offset="0.256" stop-color="#f7f7f7"/><stop offset="1" stop-color="gray" stop-opacity="0"/></radialGradient></defs><g transform="translate(0 -4841)"><rect width="1920" height="1080" transform="translate(0 4841)" fill="#3c5ab9" opacity="0.5"/><g transform="translate(0 -950)"><g transform="matrix(1, 0, 0, 1, 0, 5791)" filter="url(#a)"><path d="M263.5,0C409.027,0,527,117.973,527,263.5S409.027,527,263.5,527,0,409.027,0,263.5,117.973,0,263.5,0Z" transform="translate(697 248)"/></g><g transform="translate(-12 6368)"><rect width="1920" height="1080" transform="translate(12 -577)" opacity="0.07" fill="url(#c)"/></g><g transform="translate(743.484 6094.081)"><circle cx="1.336" cy="1.336" r="1.336" transform="translate(330.751 133.959)" fill="#fff"/><circle cx="0.573" cy="0.573" r="0.573" transform="translate(328.738 135.81)" fill="#fff"/><circle cx="0.573" cy="0.573" r="0.573" transform="translate(335.059 120.033)" fill="#fff"/><circle cx="0.573" cy="0.573" r="0.573" transform="translate(329.6 108.658)" fill="#fff"/><circle cx="0.573" cy="0.573" r="0.573" transform="translate(351.726 63.821)" fill="#fff"/><circle cx="0.763" cy="0.763" r="0.763" transform="translate(350.501 65.347)" fill="#fff"/><circle cx="0.573" cy="0.573" r="0.573" transform="translate(344.255 58.858)" fill="#fff"/><circle cx="0.573" cy="0.573" r="0.573" transform="translate(342.243 79.471)" fill="#fff"/><circle cx="0.763" cy="0.763" r="0.763" transform="translate(367.988 72.218)" fill="#fff"/><circle cx="0.763" cy="0.763" r="0.763" transform="translate(364.934 120.763)" fill="#fff"/><circle cx="0.573" cy="0.573" r="0.573" transform="translate(375.241 127.738)" fill="#fff"/><circle cx="0.954" cy="0.954" r="0.954" transform="translate(333.766 20.686)" fill="#fff"/><circle cx="0.573" cy="0.573" r="0.573" transform="translate(327.525 23.739)" fill="#fff"/><circle cx="0.573" cy="0.573" r="0.573" transform="translate(334.197 12.669)" fill="#fff"/><circle cx="0.573" cy="0.573" r="0.573" transform="translate(291.668 28.32)" fill="#fff"/><circle cx="0.763" cy="0.763" r="0.763" transform="translate(291.606 11.143)" fill="#fff"/><circle cx="1.336" cy="1.336" r="1.336" transform="translate(276.487 1.599)" fill="#fff"/><circle cx="0.954" cy="0.954" r="0.954" transform="translate(274.309 19.541)" fill="#fff"/><circle cx="1.336" cy="1.336" r="1.336" transform="translate(246.054 20.686)" fill="#fff"/><circle cx="0.763" cy="0.763" r="0.763" transform="translate(264.025 11.906)" fill="#fff"/><circle cx="0.763" cy="0.763" r="0.763" transform="translate(276.666 86.342)" fill="#fff"/><circle cx="0.763" cy="0.763" r="0.763" transform="translate(267.76 97.647)" fill="#fff"/><circle cx="0.573" cy="0.573" r="0.573" transform="translate(254.024 104.622)" fill="#fff"/><circle cx="0.573" cy="0.573" r="0.573" transform="translate(250.864 110.126)" fill="#fff"/><circle cx="1.527" cy="1.527" r="1.527" transform="translate(275.279 148.629)" fill="#fff"/><circle cx="0.763" cy="0.763" r="0.763" transform="translate(244.202 135.439)" fill="#fff"/><circle cx="0.763" cy="0.763" r="0.763" transform="translate(230.699 120.396)" fill="#fff"/><circle cx="0.382" cy="0.382" r="0.382" transform="translate(233.241 97.221)" fill="#fff"/><circle cx="0.573" cy="0.573" r="0.573" transform="translate(219.829 102.42)" fill="#fff"/><circle cx="0.763" cy="0.763" r="0.763" transform="translate(411.123 75.272)" fill="#fff"/><circle cx="0.573" cy="0.573" r="0.573" transform="translate(401.58 27.938)" fill="#fff"/><circle cx="0.573" cy="0.573" r="0.573" transform="translate(397.381 33.283)" fill="#fff"/><circle cx="0.382" cy="0.382" r="0.382" transform="translate(373.523 15.914)" fill="#fff"/><circle cx="0.573" cy="0.573" r="0.573" transform="translate(355.391 26.03)" fill="#fff"/><circle cx="0.954" cy="0.954" r="0.954" transform="translate(230.649 172.858)" fill="#fff"/><circle cx="0.763" cy="0.763" r="0.763" transform="translate(423.72 149.014)" fill="#fff"/><circle cx="0.573" cy="0.573" r="0.573" transform="translate(430.972 129.939)" fill="#fff"/><circle cx="0.573" cy="0.573" r="0.573" transform="translate(307.76 121.867)" fill="#fff"/><circle cx="0.763" cy="0.763" r="0.763" transform="translate(318.037 151.95)" fill="#fff"/><circle cx="0.763" cy="0.763" r="0.763" transform="translate(346.192 162.59)" fill="#fff"/><circle cx="0.763" cy="0.763" r="0.763" transform="translate(338.213 157.086)" fill="#fff"/><circle cx="0.954" cy="0.954" r="0.954" transform="translate(325.998 190.836)" fill="#fff"/><circle cx="0.763" cy="0.763" r="0.763" transform="translate(341.267 184.237)" fill="#fff"/><circle cx="0.573" cy="0.573" r="0.573" transform="translate(390.891 175.804)" fill="#fff"/><circle cx="0.763" cy="0.763" r="0.763" transform="translate(395.854 191.575)" fill="#fff"/><circle cx="0.763" cy="0.763" r="0.763" transform="translate(332.488 205.151)" fill="#fff"/><circle cx="0.763" cy="0.763" r="0.763" transform="translate(361.117 211.022)" fill="#fff"/><circle cx="0.954" cy="0.954" r="0.954" transform="translate(395.854 241.467)" fill="#fff"/><circle cx="0.763" cy="0.763" r="0.763" transform="translate(387.838 254.316)" fill="#fff"/><circle cx="0.573" cy="0.573" r="0.573" transform="translate(400.053 247.72)" fill="#fff"/><circle cx="0.573" cy="0.573" r="0.573" transform="translate(335.541 235.245)" fill="#fff"/><circle cx="0.954" cy="0.954" r="0.954" transform="translate(367.606 277.056)" fill="#fff"/><circle cx="0.763" cy="0.763" r="0.763" transform="translate(426.773 245.878)" fill="#fff"/><circle cx="0.954" cy="0.954" r="0.954" transform="translate(438.607 231.194)" fill="#fff"/><circle cx="0.382" cy="0.382" r="0.382" transform="translate(405.206 210.484)" fill="#fff"/><circle cx="0.573" cy="0.573" r="0.573" transform="translate(353.864 336.147)" fill="#fff"/><circle cx="0.763" cy="0.763" r="0.763" transform="translate(427.155 333.201)" fill="#fff"/><circle cx="0.573" cy="0.573" r="0.573" transform="translate(415.322 337.982)" fill="#fff"/><circle cx="0.763" cy="0.763" r="0.763" transform="translate(426.392 376.496)" fill="#fff"/><circle cx="0.573" cy="0.573" r="0.573" transform="translate(401.961 378.751)" fill="#fff"/><circle cx="0.763" cy="0.763" r="0.763" transform="translate(236.157 11.906)" fill="#fff"/><circle cx="0.763" cy="0.763" r="0.763" transform="translate(172.378 52.369)" fill="#fff"/><circle cx="0.573" cy="0.573" r="0.573" transform="translate(183.622 114.529)" fill="#fff"/><circle cx="0.763" cy="0.763" r="0.763" transform="translate(173.527 132.87)" fill="#fff"/><circle cx="0.763" cy="0.763" r="0.763" transform="translate(133.305 1.981)" fill="#fff"/><circle cx="0.763" cy="0.763" r="0.763" transform="translate(164.908 1.981)" fill="#fff"/><circle cx="1.336" cy="1.336" r="1.336" transform="translate(157.624 5.035)" fill="#fff"/><circle cx="0.763" cy="0.763" r="0.763" transform="translate(132.731 22.213)" fill="#fff"/><circle cx="0.763" cy="0.763" r="0.763" transform="translate(82.452 28.702)" fill="#fff"/><circle cx="0.573" cy="0.573" r="0.573" transform="translate(120.116 5.798)" fill="#fff"/><circle cx="1.336" cy="1.336" r="1.336" transform="translate(131.497 104.242)" fill="#fff"/><circle cx="0.573" cy="0.573" r="0.573" transform="translate(126.15 101.687)" fill="#fff"/><circle cx="0.763" cy="0.763" r="0.763" transform="translate(110.322 120.763)" fill="#fff"/><circle cx="0.763" cy="0.763" r="0.763" transform="translate(115.493 124.432)" fill="#fff"/><circle cx="0.763" cy="0.763" r="0.763" transform="translate(108.023 98.014)" fill="#fff"/><circle cx="0.763" cy="0.763" r="0.763" transform="translate(103.427 132.87)" fill="#fff"/><circle cx="1.336" cy="1.336" r="1.336" transform="translate(106.231 157.438)" fill="#fff"/><circle cx="0.573" cy="0.573" r="0.573" transform="translate(146.553 169.566)" fill="#fff"/><circle cx="0.573" cy="0.573" r="0.573" transform="translate(179.886 173.236)" fill="#fff"/><circle cx="0.763" cy="0.763" r="0.763" transform="translate(184.444 179.468)" fill="#fff"/><circle cx="0.763" cy="0.763" r="0.763" transform="translate(103.829 3.508)" fill="#fff"/><circle cx="0.763" cy="0.763" r="0.763" transform="translate(107.265 21.831)" fill="#fff"/><circle cx="1.527" cy="1.527" r="1.527" transform="translate(36.264 96.535)" fill="#fff"/><circle cx="0.382" cy="0.382" r="0.382" transform="translate(18.895 86.533)" fill="#fff"/><circle cx="0.573" cy="0.573" r="0.573" transform="translate(13.742 93.614)" fill="#fff"/><circle cx="0.763" cy="0.763" r="0.763" transform="translate(31.683 105.719)" fill="#fff"/><circle cx="1.527" cy="1.527" r="1.527" transform="translate(51.151 154.498)" fill="#fff"/><circle cx="1.336" cy="1.336" r="1.336" transform="translate(98.867 176.883)" fill="#fff"/><circle cx="0.573" cy="0.573" r="0.573" transform="translate(102.302 165.163)" fill="#fff"/><circle cx="0.954" cy="0.954" r="0.954" transform="translate(50.388 199.641)" fill="#fff"/><circle cx="1.336" cy="1.336" r="1.336" transform="translate(0 204.031)" fill="#fff"/><circle cx="0.573" cy="0.573" r="0.573" transform="translate(122.989 209.56)" fill="#fff"/><circle cx="0.763" cy="0.763" r="0.763" transform="translate(139.051 205.885)" fill="#fff"/><circle cx="0.763" cy="0.763" r="0.763" transform="translate(146.234 217.993)" fill="#fff"/><circle cx="1.336" cy="1.336" r="1.336" transform="translate(100.202 231.546)" fill="#fff"/><circle cx="0.763" cy="0.763" r="0.763" transform="translate(98.543 259.086)" fill="#fff"/><circle cx="1.336" cy="1.336" r="1.336" transform="translate(96.576 283.275)" fill="#fff"/><circle cx="1.336" cy="1.336" r="1.336" transform="translate(88.56 296.116)" fill="#fff"/><circle cx="0.573" cy="0.573" r="0.573" transform="translate(87.033 242.95)" fill="#fff"/><circle cx="0.573" cy="0.573" r="0.573" transform="translate(88.56 273.037)" fill="#fff"/><circle cx="0.954" cy="0.954" r="0.954" transform="translate(15.269 296.501)" fill="#fff"/><circle cx="0.954" cy="0.954" r="0.954" transform="translate(28.629 358.507)" fill="#fff"/><circle cx="0.763" cy="0.763" r="0.763" transform="translate(96.576 343.108)" fill="#fff"/><circle cx="1.336" cy="1.336" r="1.336" transform="translate(11.07 342.709)" fill="#fff"/><circle cx="1.336" cy="1.336" r="1.336" transform="translate(113.372 392.112)" fill="#fff"/><circle cx="1.336" cy="1.336" r="1.336" transform="translate(110.538 419.977)" fill="#fff"/><circle cx="0.763" cy="0.763" r="0.763" transform="translate(97.968 408.907)" fill="#fff"/><circle cx="0.573" cy="0.573" r="0.573" transform="translate(133.909 389.44)" fill="#fff"/><circle cx="0.954" cy="0.954" r="0.954" transform="translate(152.234 417.305)" fill="#fff"/><circle cx="0.954" cy="0.954" r="0.954" transform="translate(158.841 419.977)" fill="#fff"/><circle cx="0.382" cy="0.382" r="0.382" transform="translate(156.787 414.442)" fill="#fff"/><circle cx="0.382" cy="0.382" r="0.382" transform="translate(140.979 442.308)" fill="#fff"/><circle cx="0.573" cy="0.573" r="0.573" transform="translate(162.07 429.902)" fill="#fff"/><circle cx="1.336" cy="1.336" r="1.336" transform="translate(187.483 450.897)" fill="#fff"/><circle cx="0.763" cy="0.763" r="0.763" transform="translate(203.118 470.365)" fill="#fff"/><circle cx="0.954" cy="0.954" r="0.954" transform="translate(234.67 376.118)" fill="#fff"/><circle cx="0.763" cy="0.763" r="0.763" transform="translate(250.81 421.504)" fill="#fff"/><circle cx="0.954" cy="0.954" r="0.954" transform="translate(276.032 419.596)" fill="#fff"/><circle cx="0.763" cy="0.763" r="0.763" transform="translate(275.804 416.924)" fill="#fff"/><circle cx="4.39" cy="4.39" r="4.39" transform="translate(302.701 427.23)" fill="#fff"/><circle cx="0.954" cy="0.954" r="0.954" transform="translate(287.522 419.596)" fill="#fff"/><circle cx="0.954" cy="0.954" r="0.954" transform="translate(269.426 435.246)" fill="#fff"/><circle cx="0.763" cy="0.763" r="0.763" transform="translate(260.003 387.531)" fill="#fff"/><circle cx="0.763" cy="0.763" r="0.763" transform="translate(270.92 338.338)" fill="#fff"/><circle cx="0.763" cy="0.763" r="0.763" transform="translate(345.33 432.574)" fill="#fff"/><circle cx="0.573" cy="0.573" r="0.573" transform="translate(198.277 310.463)" fill="#fff"/><circle cx="0.763" cy="0.763" r="0.763" transform="translate(238.169 370.626)" fill="#fff"/><circle cx="0.954" cy="0.954" r="0.954" transform="translate(238.692 392.875)" fill="#fff"/><circle cx="0.763" cy="0.763" r="0.763" transform="translate(238.743 434.101)" fill="#fff"/><circle cx="1.336" cy="1.336" r="1.336" transform="translate(330.751 373.526)" fill="#fff"/><circle cx="1.527" cy="1.527" r="1.527" transform="translate(259.492 216.498)" fill="#fff"/><circle cx="1.336" cy="1.336" r="1.336" transform="translate(289.694 192.291)" fill="#fff"/><circle cx="0.573" cy="0.573" r="0.573" transform="translate(284.772 200.021)" fill="#fff"/><circle cx="0.763" cy="0.763" r="0.763" transform="translate(165.195 351.18)" fill="#fff"/><circle cx="0.573" cy="0.573" r="0.573" transform="translate(171.84 343.852)" fill="#fff"/><circle cx="0.763" cy="0.763" r="0.763" transform="translate(127.56 350.813)" fill="#fff"/><circle cx="0.763" cy="0.763" r="0.763" transform="translate(248.799 194.878)" fill="#fff"/><circle cx="0.573" cy="0.573" r="0.573" transform="translate(195.978 209.927)" fill="#fff"/><circle cx="0.573" cy="0.573" r="0.573" transform="translate(199.139 192.315)" fill="#fff"/><circle cx="1.336" cy="1.336" r="1.336" transform="translate(131.784 240.351)" fill="#fff"/><circle cx="0.573" cy="0.573" r="0.573" transform="translate(131.323 270.102)" fill="#fff"/><circle cx="0.763" cy="0.763" r="0.763" transform="translate(168.068 279.266)" fill="#fff"/><circle cx="0.954" cy="0.954" r="0.954" transform="translate(172.341 252.107)" fill="#fff"/><circle cx="0.573" cy="0.573" r="0.573" transform="translate(151.725 244.785)" fill="#fff"/><circle cx="1.336" cy="1.336" r="1.336" transform="translate(257.538 310.791)" fill="#fff"/><circle cx="1.336" cy="1.336" r="1.336" transform="translate(265.003 290.613)" fill="#fff"/><circle cx="0.763" cy="0.763" r="0.763" transform="translate(233.859 300.914)" fill="#fff"/><circle cx="0.763" cy="0.763" r="0.763" transform="translate(287.583 245.511)" fill="#fff"/></g></g></g></svg>