<svg xmlns="http://www.w3.org/2000/svg" width="178.007" height="40.296" viewBox="0 0 178.007 40.296"><path d="M88.8,10.074c-6.951,0-11.963,4.533-11.963,11.333S82.481,32.74,89.432,32.74a12.994,12.994,0,0,0,10.194-4.464l-4.817-2.783a7.206,7.206,0,0,1-5.377,2.2A6.724,6.724,0,0,1,82.9,23.6h17.642a11.371,11.371,0,0,0,.22-2.2c0-6.794-5.012-11.327-11.963-11.327ZM82.846,19.2a6.371,6.371,0,0,1,11.9,0Zm73.754-9.13c-6.951,0-11.963,4.533-11.963,11.333S150.279,32.74,157.23,32.74a12.994,12.994,0,0,0,10.194-4.464l-4.817-2.783a7.206,7.206,0,0,1-5.377,2.2A6.724,6.724,0,0,1,150.7,23.6h17.642a11.369,11.369,0,0,0,.22-2.2c0-6.794-5.012-11.327-11.963-11.327Zm-5.95,9.13a6.371,6.371,0,0,1,11.9,0h-11.9Zm-24.574,2.2a6.371,6.371,0,0,0,11.837,3.2l4.835,2.789c-2,3.337-5.755,5.346-10.376,5.346-6.957,0-11.963-4.533-11.963-11.333s5.012-11.333,11.963-11.333c4.621,0,8.368,2.009,10.376,5.346l-4.835,2.789a6.371,6.371,0,0,0-11.837,3.2ZM178.007,3.148V32.111h-5.667V3.148ZM23.265,0,46.529,40.3H0ZM81.429,3.148,63.982,33.37,46.535,3.148h6.542L63.982,22.037,74.887,3.148ZM118.52,10.7v6.1a7.178,7.178,0,0,0-2.015-.309,6.012,6.012,0,0,0-6.3,6.3v9.318h-5.667V10.7h5.667V16.5C110.209,13.3,113.93,10.7,118.52,10.7Z" fill="#3c5ab9"/></svg>