<svg xmlns="http://www.w3.org/2000/svg" xmlns:xlink="http://www.w3.org/1999/xlink" width="244" height="55.362" viewBox="0 0 244 55.362"><defs><clipPath id="a"><rect width="244" height="55.362" fill="#3c5ab9"/></clipPath></defs><g clip-path="url(#a)"><path d="M277.193,48.227h-9.605v1.019c3,0,3.487.644,3.487,4.454v6.869c0,3.81-.483,4.507-3.487,4.507-2.307-.322-3.863-1.556-6.01-3.917l-2.468-2.683c3.327-.591,5.1-2.683,5.1-5.044,0-2.951-2.521-5.2-7.244-5.2H247.52v1.019c3,0,3.487.644,3.487,4.454v6.869c0,3.81-.483,4.507-3.487,4.507V66.1H258.2V65.076c-3,0-3.487-.7-3.487-4.507V58.637h.912l5.956,7.458h15.615c7.673,0,11-4.078,11-8.961S284.866,48.227,277.193,48.227Zm-22.482,8.746V49.837h2.2a3.291,3.291,0,0,1,3.488,3.595,3.275,3.275,0,0,1-3.488,3.541h-2.2Zm22.644,7.459h-.376c-1.931,0-2.2-.483-2.2-2.951V49.837h2.576c5.58,0,6.6,4.077,6.6,7.244C283.954,60.353,282.934,64.432,277.354,64.432Z" transform="translate(-135.678 -26.436)" fill="#3c5ab9"/><path d="M151.826,52.449l3.7-10.947c1.074-3.166.591-4.078-2.844-4.078V36.351h10.088v1.074c-3.38,0-4.185.8-5.527,4.722L151.128,60.5h-.7l-5.474-16.8-5.58,16.8h-.7l-5.956-18.351c-1.288-3.917-2.146-4.722-5.259-4.722V36.351h11.912v1.074c-3.166,0-4.025.751-2.9,4.078l3.595,10.947,5.42-16.1h1.02Z" transform="translate(-69.87 -19.926)" fill="#3c5ab9"/><path d="M208.733,65.945c-5.9,0-10.731-4.346-10.731-9.659,0-5.258,4.83-9.605,10.731-9.605s10.731,4.347,10.731,9.605C219.465,61.6,214.636,65.945,208.733,65.945Zm0-17.6c-4.936,0-6.654,4.453-6.654,7.941,0,3.542,1.717,7.942,6.654,7.942,4.991,0,6.708-4.4,6.708-7.942C215.441,52.8,213.724,48.346,208.733,48.346Z" transform="translate(-108.534 -25.588)" fill="#3c5ab9"/><path d="M351.958,58.512v1.073H339.67V58.512c3.6,0,4.239-.912,4.239-6.278V43.648c0-5.367-.644-6.225-4.239-6.225V36.35h11.107c5.527,0,8.586,2.844,8.586,6.654,0,3.7-3.059,6.6-8.586,6.6h-3.059v2.628C347.718,57.6,348.362,58.512,351.958,58.512Zm-1.181-20.23h-3.059v9.337h3.059c3.005,0,4.4-2.093,4.4-4.614C355.177,40.429,353.782,38.282,350.777,38.282Z" transform="translate(-186.189 -19.925)" fill="#3c5ab9"/><path d="M421.612,61.052l-.268.966c-.483,1.771-1.074,2.415-4.883,2.415h-.751c-2.79,0-3.273-.644-3.273-4.453V57.51c4.185,0,4.508.375,4.508,3.166h1.019v-8h-1.019c0,2.79-.322,3.166-4.508,3.166V49.837h2.951c3.81,0,4.4.644,4.883,2.415l.269,1.019h.858l-.375-5.044H405.246v1.019c3,0,3.488.644,3.488,4.454v6.869c0,3.485-.41,4.363-2.779,4.488-2.252-.344-3.8-1.572-5.912-3.9l-2.469-2.683c3.327-.591,5.1-2.683,5.1-5.044,0-2.951-2.522-5.2-7.244-5.2h-9.444v1.019c3,0,3.487.644,3.487,4.454v6.869c0,3.81-.483,4.507-3.487,4.507V66.1h10.678V65.076c-3,0-3.488-.7-3.488-4.507V58.637h.912l5.956,7.458H422.1l.322-5.043h-.806Zm-28.438-4.079V49.837h2.2a3.291,3.291,0,0,1,3.488,3.595,3.275,3.275,0,0,1-3.488,3.541h-2.2Z" transform="translate(-211.576 -26.436)" fill="#3c5ab9"/><path d="M480.8,65.945a7.933,7.933,0,0,1-4.829-1.825,3.856,3.856,0,0,0-.858,1.825H474.1v-7.4h1.073a5.954,5.954,0,0,0,6.063,5.634c1.717,0,3.112-.966,3.112-2.575,0-1.395-1.234-2.468-3.434-3.488l-3.059-1.449c-2.147-1.02-3.756-2.791-3.756-5.152,0-2.576,2.415-4.775,5.742-4.775a6.72,6.72,0,0,1,4.185,1.395,3.032,3.032,0,0,0,.7-1.45h1.019v6.332h-1.127c-.376-2.522-1.771-4.615-4.614-4.615-1.5,0-2.9.859-2.9,2.2,0,1.395,1.127,2.146,3.7,3.327l2.951,1.449c2.576,1.234,3.595,3.22,3.595,4.83C487.348,63.585,484.4,65.945,480.8,65.945Z" transform="translate(-259.874 -25.589)" fill="#3c5ab9"/><path d="M517.377,65.945a7.93,7.93,0,0,1-4.829-1.825,3.856,3.856,0,0,0-.858,1.825h-1.02v-7.4h1.073a5.954,5.954,0,0,0,6.063,5.634c1.717,0,3.112-.966,3.112-2.575,0-1.395-1.234-2.468-3.435-3.488l-3.059-1.449c-2.146-1.02-3.756-2.791-3.756-5.152,0-2.576,2.415-4.775,5.742-4.775a6.72,6.72,0,0,1,4.185,1.395,3.025,3.025,0,0,0,.7-1.45h1.02v6.332h-1.126c-.376-2.522-1.771-4.615-4.614-4.615-1.5,0-2.9.859-2.9,2.2,0,1.395,1.127,2.146,3.7,3.327l2.951,1.449c2.576,1.234,3.595,3.22,3.595,4.83C523.922,63.585,520.971,65.945,517.377,65.945Z" transform="translate(-279.922 -25.589)" fill="#3c5ab9"/><path d="M8.708,49.536A23.751,23.751,0,0,0,22.091,70.908L10.764,39.872A23.656,23.656,0,0,0,8.708,49.536Z" transform="translate(-4.773 -21.856)" fill="#3c5ab9"/><path d="M53.224,31.255a12.5,12.5,0,0,0-1.958-6.549c-1.2-1.956-2.332-3.613-2.332-5.569a4.112,4.112,0,0,1,3.988-4.215c.105,0,.205.013.308.019a23.742,23.742,0,0,0-35.877,4.47c.557.017,1.082.028,1.528.028,2.484,0,6.329-.3,6.329-.3a.981.981,0,0,1,.152,1.956s-1.286.151-2.718.226l8.648,25.722,5.2-15.586-3.7-10.137c-1.279-.075-2.49-.226-2.49-.226a.981.981,0,0,1,.15-1.956s3.922.3,6.255.3c2.483,0,6.329-.3,6.329-.3a.981.981,0,0,1,.152,1.956s-1.289.151-2.718.226l8.582,25.527,2.369-7.915C52.442,35.647,53.224,33.288,53.224,31.255Z" transform="translate(-9.512 -4.773)" fill="#3c5ab9"/><path d="M53.541,65.857l-7.125,20.7a23.758,23.758,0,0,0,14.594-.379,2.086,2.086,0,0,1-.169-.327Z" transform="translate(-25.443 -36.099)" fill="#3c5ab9"/><path d="M96.58,36.046a18.22,18.22,0,0,1,.16,2.442,22.4,22.4,0,0,1-1.806,8.506L87.681,67.965a23.751,23.751,0,0,0,8.9-31.919Z" transform="translate(-48.062 -19.758)" fill="#3c5ab9"/><path d="M27.681,0A27.681,27.681,0,1,0,55.364,27.68,27.712,27.712,0,0,0,27.681,0Zm0,54.093A26.412,26.412,0,1,1,54.092,27.68,26.443,26.443,0,0,1,27.681,54.093Z" fill="#3c5ab9"/></g></svg>